<mxfile host="app.diagrams.net" modified="2022-05-12T08:01:36.492Z" agent="5.0 (Windows NT 10.0; Win64; x64) AppleWebKit/537.36 (KHTML, like Gecko) Chrome/101.0.4951.54 Safari/537.36" etag="5TMfeok8qwyrwZJs7U9k" version="18.0.3" type="github">
  <diagram id="C5RBs43oDa-KdzZeNtuy" name="Page-1">
    <mxGraphModel dx="503" dy="526" grid="1" gridSize="10" guides="1" tooltips="1" connect="1" arrows="1" fold="1" page="1" pageScale="1" pageWidth="827" pageHeight="1169" math="1" shadow="0">
      <root>
        <mxCell id="WIyWlLk6GJQsqaUBKTNV-0" />
        <mxCell id="WIyWlLk6GJQsqaUBKTNV-1" parent="WIyWlLk6GJQsqaUBKTNV-0" />
        <mxCell id="u0nWevR8HUhSAp7CdxJ3-17" style="edgeStyle=orthogonalEdgeStyle;rounded=0;orthogonalLoop=1;jettySize=auto;html=1;entryX=0.5;entryY=0;entryDx=0;entryDy=0;" edge="1" parent="WIyWlLk6GJQsqaUBKTNV-1" source="u0nWevR8HUhSAp7CdxJ3-0" target="u0nWevR8HUhSAp7CdxJ3-1">
          <mxGeometry relative="1" as="geometry" />
        </mxCell>
        <mxCell id="u0nWevR8HUhSAp7CdxJ3-0" value="&lt;span style=&quot;color: rgb(50, 50, 50); font-family: 微软雅黑; font-size: 13px; background-color: rgba(255, 255, 255, 0.01);&quot;&gt;用户功能需求界定&lt;/span&gt;" style="rounded=0;whiteSpace=wrap;html=1;" vertex="1" parent="WIyWlLk6GJQsqaUBKTNV-1">
          <mxGeometry x="425" width="150" height="40" as="geometry" />
        </mxCell>
        <mxCell id="u0nWevR8HUhSAp7CdxJ3-18" style="edgeStyle=orthogonalEdgeStyle;rounded=0;orthogonalLoop=1;jettySize=auto;html=1;entryX=0.5;entryY=0;entryDx=0;entryDy=0;" edge="1" parent="WIyWlLk6GJQsqaUBKTNV-1" source="u0nWevR8HUhSAp7CdxJ3-1" target="u0nWevR8HUhSAp7CdxJ3-2">
          <mxGeometry relative="1" as="geometry" />
        </mxCell>
        <mxCell id="u0nWevR8HUhSAp7CdxJ3-1" value="&lt;span style=&quot;color: rgb(50, 50, 50); font-family: 微软雅黑; font-size: 13px; background-color: rgba(255, 255, 255, 0.01);&quot;&gt;将系统划分成功能子系统(模块)\(N_j, j = 1 \sim m \)&lt;/span&gt;" style="rounded=0;whiteSpace=wrap;html=1;" vertex="1" parent="WIyWlLk6GJQsqaUBKTNV-1">
          <mxGeometry x="390" y="80" width="220" height="40" as="geometry" />
        </mxCell>
        <mxCell id="u0nWevR8HUhSAp7CdxJ3-19" style="edgeStyle=orthogonalEdgeStyle;rounded=0;orthogonalLoop=1;jettySize=auto;html=1;entryX=0.5;entryY=0;entryDx=0;entryDy=0;" edge="1" parent="WIyWlLk6GJQsqaUBKTNV-1" source="u0nWevR8HUhSAp7CdxJ3-2" target="u0nWevR8HUhSAp7CdxJ3-3">
          <mxGeometry relative="1" as="geometry" />
        </mxCell>
        <mxCell id="u0nWevR8HUhSAp7CdxJ3-2" value="&lt;span style=&quot;color: rgb(50, 50, 50); font-family: 微软雅黑; font-size: 13px; background-color: rgba(255, 255, 255, 0.01);&quot;&gt;由专家或经验给出各功能子系统（模块）的规模下限\( a_j \)，上限\( b_j \)和最可能值&lt;/span&gt;&lt;span style=&quot;color: rgb(50, 50, 50); font-family: 微软雅黑; font-size: 13px; background-color: rgba(255, 255, 255, 0.01);&quot;&gt;\( m_j, j = 1 \sim m \)&lt;/span&gt;" style="rounded=0;whiteSpace=wrap;html=1;" vertex="1" parent="WIyWlLk6GJQsqaUBKTNV-1">
          <mxGeometry x="320" y="140" width="360" height="50" as="geometry" />
        </mxCell>
        <mxCell id="u0nWevR8HUhSAp7CdxJ3-20" style="edgeStyle=orthogonalEdgeStyle;rounded=0;orthogonalLoop=1;jettySize=auto;html=1;" edge="1" parent="WIyWlLk6GJQsqaUBKTNV-1" source="u0nWevR8HUhSAp7CdxJ3-3" target="u0nWevR8HUhSAp7CdxJ3-4">
          <mxGeometry relative="1" as="geometry" />
        </mxCell>
        <mxCell id="u0nWevR8HUhSAp7CdxJ3-3" value="&lt;span style=&quot;color: rgb(50, 50, 50); font-family: 微软雅黑; font-size: 13px; background-color: rgba(255, 255, 255, 0.01);&quot;&gt;计算各功能子系统(模块)&lt;/span&gt;&lt;span style=&quot;color: rgb(50, 50, 50); font-family: 微软雅黑; font-size: 13px; background-color: rgba(255, 255, 255, 0.01);&quot;&gt;\( N \)&lt;/span&gt;&lt;span style=&quot;color: rgb(50, 50, 50); font-family: 微软雅黑; font-size: 13px; background-color: rgba(255, 255, 255, 0.01);&quot;&gt;的平均规模&lt;/span&gt;&lt;span style=&quot;color: rgb(50, 50, 50); font-family: 微软雅黑; font-size: 13px; background-color: rgba(255, 255, 255, 0.01);&quot;&gt;\( E_j = \frac{a_j + 4m_j + b_j}{6} \)&lt;/span&gt;&lt;span style=&quot;color: rgb(50, 50, 50); font-family: 微软雅黑; font-size: 13px; background-color: rgba(255, 255, 255, 0.01);&quot;&gt;，计算各子系统(模块)成本&lt;/span&gt;&lt;span style=&quot;color: rgb(50, 50, 50); font-family: 微软雅黑; font-size: 13px; background-color: rgba(255, 255, 255, 0.01);&quot;&gt;\( C_j = C_{oj} \cdot E_j \)&lt;/span&gt;&lt;span style=&quot;color: rgb(50, 50, 50); font-family: 微软雅黑; font-size: 13px; background-color: rgba(255, 255, 255, 0.01);&quot;&gt;，计算各子系统(模块)工作量&lt;/span&gt;&lt;span style=&quot;color: rgb(50, 50, 50); font-family: 微软雅黑; font-size: 13px; background-color: rgba(255, 255, 255, 0.01);&quot;&gt;\( M_j = E_j / E_{oj} \)&lt;/span&gt;&lt;span style=&quot;color: rgb(50, 50, 50); font-family: 微软雅黑; font-size: 13px; background-color: rgba(255, 255, 255, 0.01);&quot;&gt;，汇总计算系统总成本&lt;/span&gt;&lt;span style=&quot;color: rgb(50, 50, 50); font-family: 微软雅黑; font-size: 13px; background-color: rgba(255, 255, 255, 0.01);&quot;&gt;\( C_s \)&lt;/span&gt;&lt;span style=&quot;color: rgb(50, 50, 50); font-family: 微软雅黑; font-size: 13px; background-color: rgba(255, 255, 255, 0.01);&quot;&gt;，与总工作量&lt;/span&gt;&lt;span style=&quot;color: rgb(50, 50, 50); font-family: 微软雅黑; font-size: 13px; background-color: rgba(255, 255, 255, 0.01);&quot;&gt;\( E_s, M_s \)&lt;/span&gt;&lt;span style=&quot;color: rgb(50, 50, 50); font-family: 微软雅黑; font-size: 13px; background-color: rgba(255, 255, 255, 0.01);&quot;&gt;&lt;br&gt;，即&lt;/span&gt;&lt;span style=&quot;color: rgb(50, 50, 50); font-family: 微软雅黑; font-size: 13px; background-color: rgba(255, 255, 255, 0.01);&quot;&gt;\( C_s = \sum^m_{j = 1} C_j, E_s = \sum ^m_{j = 1} E_j, M_s = \sum ^m_{j = 1} M_j \)&lt;/span&gt;" style="rounded=0;whiteSpace=wrap;html=1;" vertex="1" parent="WIyWlLk6GJQsqaUBKTNV-1">
          <mxGeometry x="320" y="220" width="360" height="130" as="geometry" />
        </mxCell>
        <mxCell id="u0nWevR8HUhSAp7CdxJ3-21" style="edgeStyle=orthogonalEdgeStyle;rounded=0;orthogonalLoop=1;jettySize=auto;html=1;entryX=0.5;entryY=0;entryDx=0;entryDy=0;" edge="1" parent="WIyWlLk6GJQsqaUBKTNV-1" source="u0nWevR8HUhSAp7CdxJ3-4" target="u0nWevR8HUhSAp7CdxJ3-5">
          <mxGeometry relative="1" as="geometry" />
        </mxCell>
        <mxCell id="u0nWevR8HUhSAp7CdxJ3-4" value="&lt;span style=&quot;color: rgb(50, 50, 50); font-family: 微软雅黑; font-size: 13px; background-color: rgba(255, 255, 255, 0.01);&quot;&gt;由专家或经验给出&lt;/span&gt;&lt;span style=&quot;color: rgb(50, 50, 50); font-family: 微软雅黑; font-size: 13px; background-color: rgba(255, 255, 255, 0.01);&quot;&gt;\( i \)&lt;/span&gt;&lt;span style=&quot;color: rgb(50, 50, 50); font-family: 微软雅黑; font-size: 13px; background-color: rgba(255, 255, 255, 0.01);&quot;&gt;子系统(模块)在阶段&lt;/span&gt;&lt;span style=&quot;color: rgb(50, 50, 50); font-family: 微软雅黑; font-size: 13px; background-color: rgba(255, 255, 255, 0.01);&quot;&gt;\( j \)&lt;/span&gt;&lt;span style=&quot;color: rgb(50, 50, 50); font-family: 微软雅黑; font-size: 13px; background-color: rgba(255, 255, 255, 0.01);&quot;&gt;&lt;br&gt;工作量估计值&lt;/span&gt;&lt;span style=&quot;color: rgb(50, 50, 50); font-family: 微软雅黑; font-size: 13px; background-color: rgba(255, 255, 255, 0.01);&quot;&gt;\( \widetilde{M}_{ij}, i = 1 \sim m, j = 1 \sim n \)&lt;/span&gt;&lt;span style=&quot;color: rgb(50, 50, 50); font-family: 微软雅黑; font-size: 13px; background-color: rgba(255, 255, 255, 0.01);&quot;&gt;，合成系统各阶段工作量&lt;/span&gt;&lt;span style=&quot;color: rgb(50, 50, 50); font-family: 微软雅黑; font-size: 13px; background-color: rgba(255, 255, 255, 0.01);&quot;&gt;\( \widetilde{M}_{ij} \)&lt;/span&gt;&lt;span style=&quot;color: rgb(50, 50, 50); font-family: 微软雅黑; font-size: 13px; background-color: rgba(255, 255, 255, 0.01);&quot;&gt;与总工作量&lt;/span&gt;&lt;span style=&quot;color: rgb(50, 50, 50); font-family: 微软雅黑; font-size: 13px; background-color: rgba(255, 255, 255, 0.01);&quot;&gt;\( \widetilde{M}_s = \sum ^m_{i = 1}\sum^m_{i =1} \widetilde{M}_{ij}, \widetilde{M}_j = \sum^m_{i = 1} \widetilde{M}_{ij} \)&lt;/span&gt;" style="rounded=0;whiteSpace=wrap;html=1;" vertex="1" parent="WIyWlLk6GJQsqaUBKTNV-1">
          <mxGeometry x="320" y="380" width="360" height="100" as="geometry" />
        </mxCell>
        <mxCell id="u0nWevR8HUhSAp7CdxJ3-22" style="edgeStyle=orthogonalEdgeStyle;rounded=0;orthogonalLoop=1;jettySize=auto;html=1;exitX=0.5;exitY=1;exitDx=0;exitDy=0;entryX=0.5;entryY=0;entryDx=0;entryDy=0;" edge="1" parent="WIyWlLk6GJQsqaUBKTNV-1" source="u0nWevR8HUhSAp7CdxJ3-5" target="u0nWevR8HUhSAp7CdxJ3-6">
          <mxGeometry relative="1" as="geometry" />
        </mxCell>
        <mxCell id="u0nWevR8HUhSAp7CdxJ3-5" value="&lt;span style=&quot;color: rgb(50, 50, 50); font-family: 微软雅黑; font-size: 13px; background-color: rgba(255, 255, 255, 0.01);&quot;&gt;计算各阶段系统成本&lt;/span&gt;&lt;span style=&quot;color: rgb(50, 50, 50); font-family: 微软雅黑; font-size: 13px; background-color: rgba(255, 255, 255, 0.01);&quot;&gt;\( \widetilde{C}_k = \alpha_k \widetilde{M}_k, k = 1,2, \cdots, n \)&lt;/span&gt;&lt;span style=&quot;color: rgb(50, 50, 50); font-family: 微软雅黑; font-size: 13px; background-color: rgba(255, 255, 255, 0.01);&quot;&gt;，合成系统总成本&lt;/span&gt;&lt;span style=&quot;color: rgb(50, 50, 50); font-family: 微软雅黑; font-size: 13px; background-color: rgba(255, 255, 255, 0.01);&quot;&gt;\( \widetilde{C}_s, \widetilde{C}_s = \sum^n_{j =1} \widetilde{C}_j \)&lt;/span&gt;" style="rounded=0;whiteSpace=wrap;html=1;" vertex="1" parent="WIyWlLk6GJQsqaUBKTNV-1">
          <mxGeometry x="320" y="510" width="360" height="50" as="geometry" />
        </mxCell>
        <mxCell id="u0nWevR8HUhSAp7CdxJ3-23" value="Y" style="edgeStyle=orthogonalEdgeStyle;rounded=0;orthogonalLoop=1;jettySize=auto;html=1;entryX=0.5;entryY=0;entryDx=0;entryDy=0;" edge="1" parent="WIyWlLk6GJQsqaUBKTNV-1" source="u0nWevR8HUhSAp7CdxJ3-6" target="u0nWevR8HUhSAp7CdxJ3-7">
          <mxGeometry relative="1" as="geometry" />
        </mxCell>
        <mxCell id="u0nWevR8HUhSAp7CdxJ3-25" style="edgeStyle=orthogonalEdgeStyle;rounded=0;orthogonalLoop=1;jettySize=auto;html=1;entryX=1;entryY=0.5;entryDx=0;entryDy=0;exitX=1;exitY=0.5;exitDx=0;exitDy=0;" edge="1" parent="WIyWlLk6GJQsqaUBKTNV-1" source="u0nWevR8HUhSAp7CdxJ3-6" target="u0nWevR8HUhSAp7CdxJ3-2">
          <mxGeometry relative="1" as="geometry">
            <mxPoint x="580" y="640" as="sourcePoint" />
            <Array as="points">
              <mxPoint x="750" y="650" />
              <mxPoint x="750" y="165" />
            </Array>
          </mxGeometry>
        </mxCell>
        <mxCell id="u0nWevR8HUhSAp7CdxJ3-26" value="N" style="edgeStyle=orthogonalEdgeStyle;rounded=0;orthogonalLoop=1;jettySize=auto;html=1;entryX=1;entryY=0.5;entryDx=0;entryDy=0;exitX=1;exitY=0.5;exitDx=0;exitDy=0;" edge="1" parent="WIyWlLk6GJQsqaUBKTNV-1" source="u0nWevR8HUhSAp7CdxJ3-6" target="u0nWevR8HUhSAp7CdxJ3-4">
          <mxGeometry relative="1" as="geometry">
            <Array as="points">
              <mxPoint x="750" y="650" />
              <mxPoint x="750" y="430" />
              <mxPoint x="680" y="430" />
            </Array>
          </mxGeometry>
        </mxCell>
        <mxCell id="u0nWevR8HUhSAp7CdxJ3-6" value="&lt;span style=&quot;color: rgb(50, 50, 50); font-family: 微软雅黑; font-size: 13px; background-color: rgba(255, 255, 255, 0.01);&quot;&gt;比较&lt;/span&gt;&lt;span style=&quot;color: rgb(50, 50, 50); font-family: 微软雅黑; font-size: 13px; background-color: rgba(255, 255, 255, 0.01);&quot;&gt;\( C_s \)与&lt;/span&gt;&lt;span style=&quot;color: rgb(50, 50, 50); font-family: 微软雅黑; font-size: 13px; background-color: rgba(255, 255, 255, 0.01);&quot;&gt;\( \widetilde{C}_s, M_s \)与&lt;/span&gt;&lt;span style=&quot;color: rgb(50, 50, 50); font-family: 微软雅黑; font-size: 13px; background-color: rgba(255, 255, 255, 0.01);&quot;&gt;\( \widetilde{M}_s \)&lt;/span&gt;&lt;span style=&quot;color: rgb(50, 50, 50); font-family: 微软雅黑; font-size: 13px; background-color: rgba(255, 255, 255, 0.01);&quot;&gt;，是否一致?&lt;/span&gt;" style="rhombus;whiteSpace=wrap;html=1;" vertex="1" parent="WIyWlLk6GJQsqaUBKTNV-1">
          <mxGeometry x="370" y="590" width="260" height="120" as="geometry" />
        </mxCell>
        <mxCell id="u0nWevR8HUhSAp7CdxJ3-24" style="edgeStyle=orthogonalEdgeStyle;rounded=0;orthogonalLoop=1;jettySize=auto;html=1;entryX=0.5;entryY=0;entryDx=0;entryDy=0;" edge="1" parent="WIyWlLk6GJQsqaUBKTNV-1" source="u0nWevR8HUhSAp7CdxJ3-7" target="u0nWevR8HUhSAp7CdxJ3-8">
          <mxGeometry relative="1" as="geometry" />
        </mxCell>
        <mxCell id="u0nWevR8HUhSAp7CdxJ3-7" value="&lt;span style=&quot;color: rgb(50, 50, 50); font-family: 微软雅黑; font-size: 13px; background-color: rgba(255, 255, 255, 0.01);&quot;&gt;进行成本分析， 寻找关健子系统模块或阶段，研究解决办法&lt;/span&gt;" style="rounded=0;whiteSpace=wrap;html=1;" vertex="1" parent="WIyWlLk6GJQsqaUBKTNV-1">
          <mxGeometry x="400" y="760" width="200" height="60" as="geometry" />
        </mxCell>
        <mxCell id="u0nWevR8HUhSAp7CdxJ3-8" value="&lt;span style=&quot;color: rgb(50, 50, 50); font-family: 微软雅黑; font-size: 13px; background-color: rgba(255, 255, 255, 0.01);&quot;&gt;结束&lt;/span&gt;" style="rounded=1;whiteSpace=wrap;html=1;" vertex="1" parent="WIyWlLk6GJQsqaUBKTNV-1">
          <mxGeometry x="440" y="860" width="120" height="40" as="geometry" />
        </mxCell>
        <mxCell id="u0nWevR8HUhSAp7CdxJ3-12" style="edgeStyle=orthogonalEdgeStyle;rounded=0;orthogonalLoop=1;jettySize=auto;html=1;entryX=0.5;entryY=0;entryDx=0;entryDy=0;" edge="1" parent="WIyWlLk6GJQsqaUBKTNV-1" source="u0nWevR8HUhSAp7CdxJ3-9" target="u0nWevR8HUhSAp7CdxJ3-10">
          <mxGeometry relative="1" as="geometry" />
        </mxCell>
        <mxCell id="u0nWevR8HUhSAp7CdxJ3-13" style="edgeStyle=orthogonalEdgeStyle;rounded=0;orthogonalLoop=1;jettySize=auto;html=1;exitX=0.5;exitY=1;exitDx=0;exitDy=0;entryX=0;entryY=0.5;entryDx=0;entryDy=0;" edge="1" parent="WIyWlLk6GJQsqaUBKTNV-1" source="u0nWevR8HUhSAp7CdxJ3-9" target="u0nWevR8HUhSAp7CdxJ3-11">
          <mxGeometry relative="1" as="geometry" />
        </mxCell>
        <mxCell id="u0nWevR8HUhSAp7CdxJ3-16" style="edgeStyle=orthogonalEdgeStyle;rounded=0;orthogonalLoop=1;jettySize=auto;html=1;entryX=0;entryY=0.5;entryDx=0;entryDy=0;exitX=0.5;exitY=1;exitDx=0;exitDy=0;" edge="1" parent="WIyWlLk6GJQsqaUBKTNV-1" source="u0nWevR8HUhSAp7CdxJ3-9" target="u0nWevR8HUhSAp7CdxJ3-2">
          <mxGeometry relative="1" as="geometry">
            <mxPoint x="100" y="120" as="sourcePoint" />
            <Array as="points">
              <mxPoint x="60" y="165" />
            </Array>
          </mxGeometry>
        </mxCell>
        <mxCell id="u0nWevR8HUhSAp7CdxJ3-9" value="&lt;span style=&quot;color: rgb(50, 50, 50); font-family: 微软雅黑; font-size: 13px; background-color: rgba(255, 255, 255, 0.01);&quot;&gt;软件构建信息库&lt;/span&gt;" style="rounded=0;whiteSpace=wrap;html=1;" vertex="1" parent="WIyWlLk6GJQsqaUBKTNV-1">
          <mxGeometry y="80" width="120" height="40" as="geometry" />
        </mxCell>
        <mxCell id="u0nWevR8HUhSAp7CdxJ3-14" value="修改" style="edgeStyle=orthogonalEdgeStyle;rounded=0;orthogonalLoop=1;jettySize=auto;html=1;" edge="1" parent="WIyWlLk6GJQsqaUBKTNV-1" source="u0nWevR8HUhSAp7CdxJ3-10" target="u0nWevR8HUhSAp7CdxJ3-5">
          <mxGeometry relative="1" as="geometry" />
        </mxCell>
        <mxCell id="u0nWevR8HUhSAp7CdxJ3-10" value="&lt;span style=&quot;color: rgb(50, 50, 50); font-family: 微软雅黑; font-size: 13px; background-color: rgba(255, 255, 255, 0.01);&quot;&gt;\( \alpha_k \)&lt;/span&gt;" style="rounded=0;whiteSpace=wrap;html=1;" vertex="1" parent="WIyWlLk6GJQsqaUBKTNV-1">
          <mxGeometry y="515" width="120" height="40" as="geometry" />
        </mxCell>
        <mxCell id="u0nWevR8HUhSAp7CdxJ3-15" style="edgeStyle=orthogonalEdgeStyle;rounded=0;orthogonalLoop=1;jettySize=auto;html=1;entryX=0;entryY=0.5;entryDx=0;entryDy=0;" edge="1" parent="WIyWlLk6GJQsqaUBKTNV-1" source="u0nWevR8HUhSAp7CdxJ3-11" target="u0nWevR8HUhSAp7CdxJ3-3">
          <mxGeometry relative="1" as="geometry" />
        </mxCell>
        <mxCell id="u0nWevR8HUhSAp7CdxJ3-11" value="&lt;span style=&quot;color: rgb(50, 50, 50); font-family: 微软雅黑; font-size: 13px; background-color: rgba(255, 255, 255, 0.01);&quot;&gt;\( C_{oj}, E_{oj} \)&lt;/span&gt;" style="rounded=0;whiteSpace=wrap;html=1;" vertex="1" parent="WIyWlLk6GJQsqaUBKTNV-1">
          <mxGeometry x="140" y="255" width="120" height="60" as="geometry" />
        </mxCell>
      </root>
    </mxGraphModel>
  </diagram>
</mxfile>
